<?xml version="1.0" encoding="utf-8"?>
<!-- Generator: Adobe Illustrator 23.0.1, SVG Export Plug-In . SVG Version: 6.00 Build 0)  -->
<svg version="1.1" id="Layer_1" xmlns="http://www.w3.org/2000/svg" xmlns:xlink="http://www.w3.org/1999/xlink" x="0px" y="0px"
	 viewBox="0 0 16 16" style="enable-background:new 0 0 16 16;" xml:space="preserve">
<style type="text/css">
	.st0{fill-rule:evenodd;clip-rule:evenodd;fill:#F4F4F4;}
</style>
<title>ALL ICONS</title>
<path class="st0" d="M13.1,1H2.9C2,0.9,1.1,1.5,1,2.5c0,0.1,0,0.3,0,0.4v10.3c-0.1,0.9,0.7,1.7,1.6,1.8c0.1,0,0.1,0,0.2,0h10.3
	c0.9,0.1,1.8-0.5,1.9-1.5c0-0.1,0-0.3,0-0.4V2.8c0.1-0.9-0.6-1.7-1.6-1.8C13.3,1,13.2,1,13.1,1z M12,2.6c1.4,0,1.4,0,1.4,1.4
	s0,1.3-1.4,1.3s-1.3,0-1.3-1.3S10.7,2.6,12,2.6z M8,5.3c1.5,0,2.7,1.2,2.7,2.7c-0.1,1.5-1.2,2.6-2.7,2.7c-1.5,0-2.7-1.2-2.7-2.7
	C5.3,6.5,6.5,5.3,8,5.3z M13.4,12.6c0,0.6-0.2,0.8-0.8,0.8H3.4c-0.6,0-0.8-0.2-0.8-0.8V7.5c0-0.5,0.1-0.6,0.6-0.6s0.6,0,0.5,0.6
	c-0.2,2.2,1.2,4.2,3.4,4.7c2.2,0.4,4.3-0.9,5-3c0.2-0.7,0.2-1.3,0.1-2c0-0.2,0-0.3,0.2-0.3s1-0.1,1,0.9L13.4,12.6z"/>
</svg>
