<?xml version="1.0" encoding="utf-8"?>
<!-- Generator: Adobe Illustrator 23.0.1, SVG Export Plug-In . SVG Version: 6.00 Build 0)  -->
<svg version="1.1" id="Layer_1" xmlns="http://www.w3.org/2000/svg" xmlns:xlink="http://www.w3.org/1999/xlink" x="0px" y="0px"
	 viewBox="0 0 16 16" style="enable-background:new 0 0 16 16;" xml:space="preserve">
<style type="text/css">
	.st0{fill-rule:evenodd;clip-rule:evenodd;fill:#F4F4F4;}
</style>
<title>ALL ICONS</title>
<path class="st0" d="M0.5,12.8c1.1,0.1,2.2-0.1,3.2-0.6L5,11.5l-1.3-0.4C3,10.8,2.5,10.2,2.2,9.5C2.1,9.3,2.1,9.3,2.3,9.3
	c0.4,0.1,0.8,0.1,1.2-0.1L2.7,9c-1-0.5-1.6-1.6-1.6-2.7C1,6.2,1.1,6.2,1.2,6.2l1.2,0.4L1.9,6.1C1,5.2,0.8,3.8,1.4,2.6
	c0.1-0.2,0.1-0.2,0.2,0C3,4.2,4.9,5.2,7,5.6h0.7c0.2,0,0.2-0.1,0.2-0.2C7.6,4.1,8.2,2.9,9.4,2.3C10.6,1.6,12,1.8,13,2.7h0.4
	C14,2.6,14.5,2.4,15,2.2c0-0.1,0-0.1,0.1-0.1l0,0c-0.2,0.7-0.7,1.3-1.3,1.7c0.6-0.1,1.2-0.2,1.7-0.5c0,0.1,0,0.2-0.1,0.2
	c-0.3,0.5-0.8,1-1.3,1.3C14,4.9,14,5,14,5.1c0.1,2.2-0.7,4.3-2.1,6c-1.3,1.6-3.2,2.6-5.2,2.9C4.6,14.4,2.4,14,0.5,12.8L0.5,12.8z"/>
</svg>
